<?xml version="1.0" standalone="no"?>
<!DOCTYPE svg PUBLIC "-//W3C//DTD SVG 20010904//EN"
 "http://www.w3.org/TR/2001/REC-SVG-20010904/DTD/svg10.dtd">
<svg version="1.0" xmlns="http://www.w3.org/2000/svg"
 width="100.000000pt" height="100.000000pt" viewBox="0 0 100.000000 100.000000"
 preserveAspectRatio="xMidYMid meet">
<metadata>
Created by potrace 1.11, written by Peter Selinger 2001-2013
</metadata>
<g transform="translate(0.000000,100.000000) scale(0.100000,-0.100000)"
fill="#000000" stroke="none">
<path d="M338 983 c-19 -5 -44 -54 -53 -103 -4 -24 -22 -49 -60 -85 -39 -37
-57 -62 -66 -95 -6 -25 -20 -52 -30 -62 -21 -18 -25 -38 -8 -38 21 0 1 -72
-28 -102 l-27 -29 22 -6 c25 -6 29 -21 7 -29 -27 -11 -16 -31 35 -64 47 -30
122 -61 183 -74 27 -6 27 -8 22 -63 -3 -32 -11 -61 -18 -65 -21 -13 -53 -9
-80 12 -32 25 -53 25 -67 0 -23 -42 21 -80 96 -83 41 -1 44 -3 44 -28 0 -40
53 -54 85 -22 13 12 32 16 78 14 52 -1 66 -6 84 -27 19 -21 25 -23 42 -12 19
12 41 49 41 70 0 6 8 16 17 23 24 18 20 67 -10 125 -15 28 -23 49 -19 46 12
-7 110 18 162 42 82 37 140 101 93 103 -15 0 -14 3 5 16 25 18 29 38 8 46 -17
7 -10 48 9 59 18 11 4 84 -16 81 -9 -2 -20 14 -32 45 -9 27 -32 68 -51 92 -23
30 -34 54 -34 77 0 41 -26 99 -48 107 -19 7 -56 -14 -96 -55 -23 -23 -31 -26
-60 -20 -18 4 -51 6 -72 4 -22 -1 -43 1 -46 6 -18 29 -65 83 -79 90 -9 4 -23
6 -33 4z"/>
</g>
</svg>
